<svg version="1.1" id="Layer_1" xmlns="http://www.w3.org/2000/svg" xmlns:xlink="http://www.w3.org/1999/xlink" x="0px" y="0px"
	 width="100%" viewBox="0 0 1000 1000" enable-background="new 0 0 1000 1000" xml:space="preserve">
<path fill="#FFFFFF" opacity="1.000000" stroke="none" 
	d="
M939.000000,1001.000000 
	C626.000000,1001.000000 313.500000,1001.000000 1.000000,1001.000000 
	C1.000000,667.666687 1.000000,334.333344 1.000000,1.000000 
	C334.333344,1.000000 667.666687,1.000000 1001.000000,1.000000 
	C1001.000000,334.333344 1001.000000,667.666687 1001.000000,1001.000000 
	C980.500000,1001.000000 960.000000,1001.000000 939.000000,1001.000000 
M883.053223,796.405884 
	C878.037842,788.284912 872.975342,780.192566 868.015869,772.037659 
	C852.797363,747.013733 837.662598,721.938721 822.411682,696.934509 
	C806.318726,670.549622 790.312012,644.108093 773.808411,617.981506 
	C770.958740,613.470215 772.275879,611.273499 775.152283,608.322632 
	C785.233582,597.980164 795.256348,587.580566 805.297729,577.199219 
	C814.875671,567.297058 824.403137,557.345459 834.034424,547.495544 
	C851.938171,529.185425 869.947876,510.978668 887.806885,492.625183 
	C892.247009,488.062134 896.279602,483.102631 900.786926,478.000092 
	C851.876831,478.000092 803.544800,477.992950 755.212769,478.040985 
	C753.996216,478.042175 752.351501,478.259338 751.634766,479.042389 
	C747.428467,483.637634 743.417297,488.412903 739.380615,493.161682 
	C730.147034,504.024292 720.973572,514.938293 711.704468,525.770447 
	C704.976562,533.632874 698.077209,541.348755 691.357300,549.217896 
	C682.314819,559.806824 673.366760,570.476440 664.387146,581.118958 
	C659.106445,587.377502 653.910339,593.708984 648.546509,599.895203 
	C645.448303,603.468506 642.092224,606.818176 638.852173,610.268555 
	C638.513306,610.044617 638.174438,609.820740 637.835571,609.596863 
	C637.835571,565.837646 637.835571,522.078430 637.835571,478.292694 
	C600.733276,478.292694 564.001465,478.292694 527.318237,478.292694 
	C527.318237,597.984009 527.318237,717.382385 527.318237,836.656128 
	C564.369751,836.656128 601.101990,836.656128 638.000000,836.656128 
	C638.000000,834.490784 638.000000,832.668640 638.000000,830.846558 
	C638.000000,805.013245 637.959106,779.179749 638.083130,753.347046 
	C638.092346,751.429321 638.765442,749.037720 640.014587,747.680908 
	C647.763123,739.264771 655.764587,731.081482 663.681946,722.820740 
	C664.372437,722.100220 665.067688,721.384277 665.750061,720.656128 
	C675.302063,710.463562 684.852112,700.269226 694.462097,690.011841 
	C695.787903,692.193054 696.996033,693.929993 697.954529,695.795227 
	C711.218811,721.606323 724.468689,747.424805 737.680603,773.262695 
	C747.797424,793.047852 757.986450,812.798523 767.814026,832.726990 
	C769.499634,836.145142 771.338684,837.072388 774.860962,837.064148 
	C817.194092,836.964966 859.527405,837.000000 901.860718,837.000000 
	C903.478088,837.000000 905.095520,837.000000 907.878296,837.000000 
	C899.428284,823.133789 891.466614,810.069031 883.053223,796.405884 
M150.540894,513.972412 
	C127.708496,535.036560 112.171776,560.440186 103.725235,590.438660 
	C98.421524,609.275208 96.021500,628.452820 95.128281,647.822144 
	C94.270042,666.432983 95.795097,684.999878 99.006783,703.384521 
	C101.714722,718.885620 105.929810,733.929871 112.648727,748.221558 
	C122.186012,768.507935 134.954987,786.305054 151.709732,801.380188 
	C163.735733,812.200806 177.243561,820.544983 191.914154,826.835876 
	C213.752609,836.200623 237.017303,840.746216 260.547546,841.702637 
	C286.523254,842.758362 312.562500,842.890625 338.393158,837.226379 
	C366.438782,831.076416 391.387238,819.198730 412.855225,800.446899 
	C428.889282,786.441589 440.938751,769.222900 449.757690,749.729553 
	C461.498749,723.777100 465.605011,696.213623 466.863098,668.172485 
	C467.764557,648.080322 466.891235,628.004761 463.112000,608.092163 
	C460.292908,593.238342 456.131836,578.894592 450.006989,565.106567 
	C436.959747,535.735168 416.641357,512.681213 388.905701,496.533478 
	C362.146637,480.954224 332.643127,473.761444 302.062531,472.276306 
	C280.336304,471.221161 258.447388,470.874512 236.756119,474.888489 
	C219.327744,478.113586 202.431961,482.794800 186.384689,490.285065 
	C173.511978,496.293610 161.995575,504.472321 150.540894,513.972412 
z"/>
<path fill="#FF0E0E" opacity="1.000000" stroke="none" 
	d="
M883.279114,796.705078 
	C891.466614,810.069031 899.428284,823.133789 907.878296,837.000000 
	C905.095520,837.000000 903.478088,837.000000 901.860718,837.000000 
	C859.527405,837.000000 817.194092,836.964966 774.860962,837.064148 
	C771.338684,837.072388 769.499634,836.145142 767.814026,832.726990 
	C757.986450,812.798523 747.797424,793.047852 737.680603,773.262695 
	C724.468689,747.424805 711.218811,721.606323 697.954529,695.795227 
	C696.996033,693.929993 695.787903,692.193054 694.462097,690.011841 
	C684.852112,700.269226 675.302063,710.463562 665.750061,720.656128 
	C665.067688,721.384277 664.372437,722.100220 663.681946,722.820740 
	C655.764587,731.081482 647.763123,739.264771 640.014587,747.680908 
	C638.765442,749.037720 638.092346,751.429321 638.083130,753.347046 
	C637.959106,779.179749 638.000000,805.013245 638.000000,830.846558 
	C638.000000,832.668640 638.000000,834.490784 638.000000,836.656128 
	C601.101990,836.656128 564.369751,836.656128 527.318237,836.656128 
	C527.318237,717.382385 527.318237,597.984009 527.318237,478.292694 
	C564.001465,478.292694 600.733276,478.292694 637.835571,478.292694 
	C637.835571,522.078430 637.835571,565.837646 637.835571,609.596863 
	C638.174438,609.820740 638.513306,610.044617 638.852173,610.268555 
	C642.092224,606.818176 645.448303,603.468506 648.546509,599.895203 
	C653.910339,593.708984 659.106445,587.377502 664.387146,581.118958 
	C673.366760,570.476440 682.314819,559.806824 691.357300,549.217896 
	C698.077209,541.348755 704.976562,533.632874 711.704468,525.770447 
	C720.973572,514.938293 730.147034,504.024292 739.380615,493.161682 
	C743.417297,488.412903 747.428467,483.637634 751.634766,479.042389 
	C752.351501,478.259338 753.996216,478.042175 755.212769,478.040985 
	C803.544800,477.992950 851.876831,478.000092 900.786926,478.000092 
	C896.279602,483.102631 892.247009,488.062134 887.806885,492.625183 
	C869.947876,510.978668 851.938171,529.185425 834.034424,547.495544 
	C824.403137,557.345459 814.875671,567.297058 805.297729,577.199219 
	C795.256348,587.580566 785.233582,597.980164 775.152283,608.322632 
	C772.275879,611.273499 770.958740,613.470215 773.808411,617.981506 
	C790.312012,644.108093 806.318726,670.549622 822.411682,696.934509 
	C837.662598,721.938721 852.797363,747.013733 868.015869,772.037659 
	C872.975342,780.192566 878.037842,788.284912 883.279114,796.705078 
z"/>
<path fill="#FF0E0E" opacity="1.000000" stroke="none" 
	d="
M150.787643,513.711060 
	C161.995575,504.472321 173.511978,496.293610 186.384689,490.285065 
	C202.431961,482.794800 219.327744,478.113586 236.756119,474.888489 
	C258.447388,470.874512 280.336304,471.221161 302.062531,472.276306 
	C332.643127,473.761444 362.146637,480.954224 388.905701,496.533478 
	C416.641357,512.681213 436.959747,535.735168 450.006989,565.106567 
	C456.131836,578.894592 460.292908,593.238342 463.112000,608.092163 
	C466.891235,628.004761 467.764557,648.080322 466.863098,668.172485 
	C465.605011,696.213623 461.498749,723.777100 449.757690,749.729553 
	C440.938751,769.222900 428.889282,786.441589 412.855225,800.446899 
	C391.387238,819.198730 366.438782,831.076416 338.393158,837.226379 
	C312.562500,842.890625 286.523254,842.758362 260.547546,841.702637 
	C237.017303,840.746216 213.752609,836.200623 191.914154,826.835876 
	C177.243561,820.544983 163.735733,812.200806 151.709732,801.380188 
	C134.954987,786.305054 122.186012,768.507935 112.648727,748.221558 
	C105.929810,733.929871 101.714722,718.885620 99.006783,703.384521 
	C95.795097,684.999878 94.270042,666.432983 95.128281,647.822144 
	C96.021500,628.452820 98.421524,609.275208 103.725235,590.438660 
	C112.171776,560.440186 127.708496,535.036560 150.787643,513.711060 
M307.129181,754.959900 
	C315.372314,751.483887 323.338379,747.640320 330.085022,741.499146 
	C343.186218,729.573669 348.609802,713.848206 351.883636,697.262878 
	C354.955475,681.701111 355.128876,665.859436 355.114014,649.997009 
	C355.097015,631.848999 353.085663,614.168091 345.963287,597.348328 
	C339.403931,581.858093 328.406494,570.251221 313.249664,563.202576 
	C298.136444,556.174194 281.946411,555.306702 265.682068,558.061157 
	C243.208313,561.867188 227.358719,574.866821 217.559036,595.065369 
	C210.443283,609.731934 208.211319,625.821167 207.213837,641.841492 
	C206.465378,653.862244 207.762787,666.002563 207.968201,678.092773 
	C208.177963,690.439270 210.947021,702.285889 215.081909,713.784851 
	C221.466965,731.541382 232.925323,744.716980 250.597336,752.294128 
	C268.903046,760.143066 287.473907,759.498657 307.129181,754.959900 
z"/>
<path fill="#FFFFFF" opacity="1.000000" stroke="none" 
	d="
M306.716217,754.978271 
	C287.473907,759.498657 268.903046,760.143066 250.597336,752.294128 
	C232.925323,744.716980 221.466965,731.541382 215.081909,713.784851 
	C210.947021,702.285889 208.177963,690.439270 207.968201,678.092773 
	C207.762787,666.002563 206.465378,653.862244 207.213837,641.841492 
	C208.211319,625.821167 210.443283,609.731934 217.559036,595.065369 
	C227.358719,574.866821 243.208313,561.867188 265.682068,558.061157 
	C281.946411,555.306702 298.136444,556.174194 313.249664,563.202576 
	C328.406494,570.251221 339.403931,581.858093 345.963287,597.348328 
	C353.085663,614.168091 355.097015,631.848999 355.114014,649.997009 
	C355.128876,665.859436 354.955475,681.701111 351.883636,697.262878 
	C348.609802,713.848206 343.186218,729.573669 330.085022,741.499146 
	C323.338379,747.640320 315.372314,751.483887 306.716217,754.978271 
z"/>
</svg>